<svg xmlns:dc="http://purl.org/dc/elements/1.1/" xmlns:cc="http://creativecommons.org/ns#" xmlns:rdf="http://www.w3.org/1999/02/22-rdf-syntax-ns#" xmlns:svg="http://www.w3.org/2000/svg" xmlns="http://www.w3.org/2000/svg" viewBox="0 0 1360.6267 337.33334" height="337.33334" width="1360.6267" xml:space="preserve" id="svg2" version="1.1"><metadata id="metadata8"><rdf:RDF><cc:Work rdf:about=""><dc:format>image/svg+xml</dc:format><dc:type rdf:resource="http://purl.org/dc/dcmitype/StillImage"/></cc:Work></rdf:RDF></metadata><defs id="defs6"><clipPath id="clipPath18" clipPathUnits="userSpaceOnUse"><path id="path16" d="M 314.736,41.009 H 18.301 V 218.87 h 296.435 z"/></clipPath><linearGradient id="linearGradient38" spreadMethod="pad" gradientTransform="matrix(296.43457,0,0,-296.43457,18.301758,129.93945)" gradientUnits="userSpaceOnUse" y2="0" x2="1" y1="0" x1="0"><stop id="stop24" offset="0" style="stop-opacity:1;stop-color:#35120f"/><stop id="stop26" offset="0.28475966" style="stop-opacity:1;stop-color:#771d17"/><stop id="stop28" offset="0.3" style="stop-opacity:1;stop-color:#771d17"/><stop id="stop30" offset="0.5" style="stop-opacity:1;stop-color:#b81f38"/><stop id="stop32" offset="0.7" style="stop-opacity:1;stop-color:#771d17"/><stop id="stop34" offset="0.95579809" style="stop-opacity:1;stop-color:#35120f"/><stop id="stop36" offset="1" style="stop-opacity:1;stop-color:#35120f"/></linearGradient><clipPath id="clipPath52" clipPathUnits="userSpaceOnUse"><path id="path50" d="M 0,253 H 1020.47 V 0 H 0 Z"/></clipPath></defs><g transform="matrix(1.3333333,0,0,-1.3333333,0,337.33333)" id="g10"><g id="g12"><g clip-path="url(#clipPath18)" id="g14"><g id="g20"><g id="g22"><path id="path40" style="fill:url(#linearGradient38);stroke:none" d="M 314.736,41.009 H 18.301 V 218.87 h 296.435 z"/></g></g></g></g><path id="path42" style="fill:#ffffff;fill-opacity:1;fill-rule:nonzero;stroke:none" d="M 192.462,41.009 H 140.585 V 218.87 h 51.877 z"/><path id="path44" style="fill:#ffffff;fill-opacity:1;fill-rule:nonzero;stroke:none" d="M 77.59,155.875 H 255.456 V 103.999 H 77.59 Z"/><g id="g46"><g clip-path="url(#clipPath52)" id="g48"><g transform="translate(381.6753,112.9375)" id="g54"><path id="path56" style="fill:#414142;fill-opacity:1;fill-rule:nonzero;stroke:none" d="m 0,0 c -8.884,0 -15.803,2.475 -20.77,7.441 -4.957,4.957 -7.857,9.678 -8.702,14.163 -0.839,4.483 -1.26,11.764 -1.26,21.847 0,10.006 0.421,17.267 1.26,21.788 0.845,4.522 3.745,9.267 8.702,14.23 4.967,4.957 11.886,7.441 20.77,7.441 7.999,0 14.706,-2.281 20.105,-6.845 5.404,-4.56 8.864,-11.043 10.389,-19.446 H 17.29 c -1.042,4.564 -3.024,8.142 -5.944,10.745 -2.924,2.602 -6.701,3.9 -11.346,3.9 -5.205,0 -9.12,-1.422 -11.765,-4.262 -2.639,-2.838 -4.303,-6.061 -4.982,-9.663 -0.676,-3.602 -1.019,-9.565 -1.019,-17.888 0,-8.718 0.32,-14.766 0.958,-18.122 0.645,-3.366 2.304,-6.483 4.986,-9.366 2.678,-2.881 6.617,-4.322 11.822,-4.322 4.645,0 8.446,1.318 11.404,3.962 2.962,2.645 4.961,6.2 5.999,10.684 H 30.494 C 29.053,17.888 25.607,11.404 20.167,6.845 14.722,2.274 7.999,0 0,0"/></g><g transform="translate(461.624,187.481)" id="g58"><path id="path60" style="fill:#414142;fill-opacity:1;fill-rule:nonzero;stroke:none" d="M 0,0 H -19.206 V -26.888 H 0 c 4.323,0 7.821,1.184 10.504,3.555 2.682,2.37 4.018,5.65 4.018,9.83 0,4.18 -1.318,7.474 -3.957,9.887 C 7.925,-1.204 4.398,0 0,0 m 14.987,-73.956 -17.954,36.164 -16.239,-0.019 V -73.945 H -32.172 V 11.646 H 0.962 c 8,0 14.422,-2.304 19.268,-6.901 4.838,-4.602 7.261,-10.627 7.261,-18.068 0,-5.844 -1.584,-10.745 -4.741,-14.707 -3.165,-3.961 -7.26,-6.624 -12.305,-7.979 l 19.691,-37.936 z"/></g><g transform="translate(537.374,112.9375)" id="g62"><path id="path64" style="fill:#414142;fill-opacity:1;fill-rule:nonzero;stroke:none" d="m 0,0 c -8.808,0 -16.11,2.74 -21.911,8.22 -5.807,5.478 -8.703,12.587 -8.703,21.308 v 56.661 h 12.963 V 30.125 c 0,-5.678 1.584,-10.18 4.74,-13.498 C -9.746,13.3 -5.445,11.641 0,11.641 c 5.355,0 9.66,1.659 12.9,4.986 3.244,3.318 4.864,7.82 4.864,13.498 V 86.189 H 30.727 V 29.528 C 30.727,20.807 27.826,13.698 22.025,8.22 16.22,2.74 8.881,0 0,0"/></g><g transform="translate(583.7051,113.5361)" id="g66"><path id="path68" style="fill:#414142;fill-opacity:1;fill-rule:nonzero;stroke:none" d="M 0,0 0.079,11.108 39.614,73.945 H 1.683 V 85.591 H 54.737 V 75.026 L 15.01,11.64 H 54.737 V 0 Z"/></g><g transform="translate(706.8652,112.9375)" id="g70"><path id="path72" style="fill:#414142;fill-opacity:1;fill-rule:nonzero;stroke:none" d="m 0,0 c -6.559,0 -12.241,0.854 -17.043,2.579 -4.807,1.715 -9.206,4.625 -13.207,8.702 l 8.646,8.521 c 2.958,-2.956 6.219,-5.062 9.783,-6.303 3.555,-1.241 7.579,-1.858 12.062,-1.858 5.6,0 9.941,1.137 13.027,3.422 3.075,2.285 4.619,5.498 4.619,9.66 0,3.923 -0.825,6.626 -2.459,8.105 -1.644,1.478 -3.142,2.501 -4.503,3.062 -1.36,0.558 -3.284,1.005 -5.757,1.316 L -4.92,38.648 c -6.963,0.966 -12.446,3.327 -16.445,7.087 -4.001,3.759 -6.002,9.125 -6.002,16.088 0,7.516 2.56,13.584 7.68,18.186 5.123,4.597 12.084,6.901 20.891,6.901 10.722,0 19.566,-3.242 26.527,-9.727 l -8.28,-8.161 c -2.482,2.403 -5.245,4.1 -8.284,5.104 -3.044,1 -6.483,1.499 -10.323,1.499 -4.883,0 -8.701,-1.261 -11.464,-3.783 -2.765,-2.517 -4.145,-5.701 -4.145,-9.541 0,-3.36 1.101,-6.023 3.305,-7.982 2.198,-1.962 5.38,-3.265 9.54,-3.905 l 9.722,-1.436 c 3.844,-0.563 6.986,-1.342 9.422,-2.342 2.445,-1.005 5.305,-2.943 8.588,-5.827 3.281,-2.881 4.92,-8.123 4.92,-15.726 0,-7.765 -2.82,-13.878 -8.463,-18.362 C 16.627,2.237 9.206,0 0,0"/></g><g transform="translate(784.2939,112.9375)" id="g74"><path id="path76" style="fill:#414142;fill-opacity:1;fill-rule:nonzero;stroke:none" d="m 0,0 c -8.807,0 -16.106,2.74 -21.908,8.22 -5.802,5.478 -8.702,12.587 -8.702,21.308 v 56.661 h 12.964 V 30.125 c 0,-5.678 1.578,-10.18 4.743,-13.498 C -9.746,13.3 -5.441,11.641 0,11.641 c 5.364,0 9.664,1.659 12.905,4.986 3.242,3.318 4.858,7.82 4.858,13.498 V 86.189 H 30.73 V 29.528 C 30.73,20.807 27.83,13.698 22.029,8.22 16.229,2.74 8.881,0 0,0"/></g><path id="path78" style="fill:#414142;fill-opacity:1;fill-rule:nonzero;stroke:none" d="M 836.031,199.127 H 849 v -85.591 h -12.969 z"/><g transform="translate(865.9199,113.5361)" id="g80"><path id="path82" style="fill:#414142;fill-opacity:1;fill-rule:nonzero;stroke:none" d="M 0,0 0.085,11.108 39.614,73.945 H 1.687 V 85.591 H 54.743 V 75.026 L 15.012,11.64 H 54.743 V 0 Z"/></g><g transform="translate(964.2539,179.6895)" id="g84"><path id="path86" style="fill:#414142;fill-opacity:1;fill-rule:nonzero;stroke:none" d="m 0,0 -13.246,-37.944 h 26.115 z m 22.43,-66.153 -5.815,17.289 h -33.74 l -5.943,-17.289 H -36.87 l 31.33,85.59 H 4.906 l 31.329,-85.59 z"/></g><g transform="translate(510.125,53.4258)" id="g88"><path id="path90" style="fill:#414142;fill-opacity:1;fill-rule:nonzero;stroke:none" d="M 0,0 3.626,-2.02 C 2.81,-5.119 1.161,-7.518 -1.313,-9.215 c -2.474,-1.705 -5.316,-2.558 -8.541,-2.558 -4.219,0 -7.597,1.374 -10.147,4.105 -2.55,2.739 -3.825,6.123 -3.825,10.152 0,4.417 1.28,7.934 3.844,10.549 2.565,2.617 5.909,3.926 10.033,3.926 3.641,0 6.703,-0.996 9.187,-2.977 v 2.54 H 2.845 V 7.574 h -3.607 c -0.798,1.811 -2.034,3.214 -3.702,4.209 -1.668,0.995 -3.428,1.497 -5.267,1.497 -2.777,0 -5.051,-1.005 -6.834,-3.004 -1.782,-2.001 -2.673,-4.531 -2.673,-7.593 0,-3.138 0.948,-5.697 2.863,-7.689 1.906,-1.989 4.171,-2.984 6.787,-2.984 2.147,0 4.105,0.691 5.867,2.076 1.76,1.383 3,3.353 3.721,5.914"/></g><g transform="translate(518.6328,64.043)" id="g92"><path id="path94" style="fill:#414142;fill-opacity:1;fill-rule:nonzero;stroke:none" d="M 0,0 2.825,6.342 H 8.352 L 2.564,0 Z m 1.423,-18.561 v 12.608 h -3.005 v 3.385 h 6.81 v -15.993 h 3.001 v -3.384 h -9.811 v 3.384 z"/></g><g transform="translate(541.9043,49.3027)" id="g96"><path id="path98" style="fill:#414142;fill-opacity:1;fill-rule:nonzero;stroke:none" d="m 0,0 c -1.644,1.278 -3.308,1.925 -4.985,1.925 -1.058,0 -1.939,-0.304 -2.646,-0.92 -0.71,-0.616 -1.061,-1.413 -1.061,-2.39 0,-0.9 0.312,-1.668 0.928,-2.274 0.627,-0.616 1.47,-0.93 2.532,-0.93 1.849,0 3.588,0.778 5.232,2.323 z M 7.025,-3.82 V -7.205 H 0.379 v 2.36 c -1.843,-1.791 -3.9,-2.681 -6.169,-2.681 -1.765,0 -3.289,0.568 -4.594,1.724 -1.303,1.148 -1.952,2.617 -1.952,4.398 0,1.802 0.69,3.3 2.07,4.485 1.383,1.193 3.047,1.782 4.995,1.782 1.822,0 3.575,-0.54 5.271,-1.64 v 1.924 c 0,0.986 -0.094,1.745 -0.282,2.286 -0.193,0.529 -0.628,1.012 -1.309,1.44 -0.694,0.426 -1.589,0.635 -2.692,0.635 -1.915,0 -3.295,-0.76 -4.149,-2.275 l -3.643,0.957 c 1.611,3.015 4.407,4.522 8.369,4.522 1.45,0 2.712,-0.191 3.773,-0.587 C 1.129,11.734 1.921,11.224 2.436,10.606 2.958,9.982 3.309,9.309 3.489,8.589 3.67,7.868 3.764,6.721 3.764,5.147 V -3.82 Z"/></g><path id="path100" style="fill:#414142;fill-opacity:1;fill-rule:nonzero;stroke:none" d="m 552.972,47.018 h 4.924 v -4.92 h -4.924 z"/><g transform="translate(574.2578,51.8047)" id="g102"><path id="path104" style="fill:#414142;fill-opacity:1;fill-rule:nonzero;stroke:none" d="m 0,0 c 0,-2.133 0.603,-3.772 1.81,-4.919 1.21,-1.157 2.656,-1.726 4.334,-1.726 1.628,0 3.075,0.608 4.335,1.812 1.265,1.203 1.892,2.881 1.892,5.014 0,2.151 -0.644,3.771 -1.93,4.862 -1.289,1.1 -2.735,1.65 -4.336,1.65 C 4.385,6.693 2.939,6.048 1.764,4.759 0.587,3.47 0,1.887 0,0 m 19.661,-6.322 v -3.385 h -7.29 v 2.844 c -1.895,-2.114 -4.2,-3.165 -6.924,-3.165 -2.526,0 -4.741,0.861 -6.651,2.578 -1.904,1.724 -2.863,4.171 -2.863,7.356 0,3.185 0.982,5.706 2.944,7.545 1.963,1.839 4.175,2.759 6.649,2.759 2.616,0 4.897,-1.034 6.845,-3.118 V 14.76 H 8.646 v 3.384 h 7.532 V -6.322 Z"/></g><g transform="translate(612.0801,53.5879)" id="g106"><path id="path108" style="fill:#414142;fill-opacity:1;fill-rule:nonzero;stroke:none" d="m 0,0 c -0.27,1.364 -0.976,2.597 -2.122,3.695 -1.148,1.101 -2.561,1.651 -4.229,1.651 -1.52,0 -2.823,-0.492 -3.904,-1.49 C -11.338,2.863 -11.994,1.574 -12.237,0 Z M 3.926,-2.76 H -12.38 c 0.247,-1.792 0.949,-3.242 2.125,-4.35 1.174,-1.109 2.677,-1.66 4.507,-1.66 2.659,0 4.759,1.071 6.309,3.205 l 3.365,-1.479 c -1.101,-1.697 -2.522,-2.957 -4.266,-3.772 -1.754,-0.826 -3.579,-1.233 -5.49,-1.233 -2.961,0 -5.496,0.918 -7.598,2.769 -2.099,1.847 -3.15,4.341 -3.15,7.477 0,2.977 1.024,5.424 3.071,7.349 2.047,1.923 4.398,2.881 7.058,2.881 2.602,0 4.962,-0.939 7.076,-2.807 2.119,-1.877 3.214,-4.674 3.299,-8.38"/></g><g transform="translate(629.2002,42.0977)" id="g110"><path id="path112" style="fill:#414142;fill-opacity:1;fill-rule:nonzero;stroke:none" d="M 0,0 V 10.105 H 3.479 V 7.65 c 1.669,-3.033 3.855,-4.549 6.55,-4.549 1.375,0 2.536,0.418 3.485,1.259 0.947,0.844 1.422,1.945 1.422,3.31 0,1.315 -0.39,2.265 -1.162,2.853 -0.778,0.578 -2.238,1.157 -4.389,1.725 -2.492,0.673 -4.342,1.299 -5.545,1.896 -1.199,0.596 -2.158,1.44 -2.873,2.541 -0.71,1.099 -1.071,2.408 -1.071,3.915 0,2.34 0.779,4.199 2.332,5.601 1.555,1.394 3.507,2.086 5.858,2.086 2.227,0 4.3,-0.722 6.21,-2.162 v 1.868 h 3.403 v -8.457 h -3.403 v 1.944 c -1.434,2.153 -3.4,3.224 -5.907,3.224 -1.526,0 -2.691,-0.35 -3.507,-1.052 C 4.067,22.95 3.659,22.116 3.659,21.14 c 0,-0.75 0.208,-1.404 0.626,-1.973 0.408,-0.568 0.939,-0.985 1.578,-1.25 0.641,-0.267 1.902,-0.636 3.788,-1.118 2.453,-0.636 4.237,-1.235 5.346,-1.792 1.108,-0.55 2.058,-1.48 2.863,-2.769 0.795,-1.299 1.199,-2.786 1.199,-4.464 0,-2.379 -0.839,-4.342 -2.512,-5.896 -1.674,-1.545 -3.749,-2.323 -6.218,-2.323 -2.536,0 -4.821,0.92 -6.85,2.749 L 3.479,0 Z"/></g><g transform="translate(667.6025,53.5879)" id="g114"><path id="path116" style="fill:#414142;fill-opacity:1;fill-rule:nonzero;stroke:none" d="m 0,0 c -0.267,1.364 -0.978,2.597 -2.125,3.695 -1.146,1.101 -2.555,1.651 -4.222,1.651 -1.523,0 -2.825,-0.492 -3.907,-1.49 -1.08,-0.993 -1.739,-2.282 -1.98,-3.856 z m 3.923,-2.76 h -16.299 c 0.241,-1.792 0.946,-3.242 2.122,-4.35 1.177,-1.109 2.68,-1.66 4.509,-1.66 2.654,0 4.758,1.071 6.303,3.205 l 3.365,-1.479 c -1.095,-1.697 -2.516,-2.957 -4.265,-3.772 -1.748,-0.826 -3.574,-1.233 -5.488,-1.233 -2.958,0 -5.492,0.918 -7.594,2.769 -2.104,1.847 -3.157,4.341 -3.157,7.477 0,2.977 1.024,5.424 3.073,7.349 2.052,1.923 4.402,2.881 7.061,2.881 2.603,0 4.958,-0.939 7.077,-2.807 2.117,-1.877 3.213,-4.674 3.293,-8.38"/></g><g transform="translate(678.5322,51.5869)" id="g118"><path id="path120" style="fill:#414142;fill-opacity:1;fill-rule:nonzero;stroke:none" d="m 0,0 c 0,-1.962 0.573,-3.564 1.715,-4.806 1.138,-1.243 2.597,-1.857 4.37,-1.857 1.738,0 3.233,0.614 4.488,1.867 1.257,1.252 1.881,2.852 1.881,4.816 0,1.99 -0.624,3.583 -1.881,4.795 C 9.318,6.021 7.861,6.627 6.208,6.627 4.554,6.627 3.108,6.028 1.866,4.835 0.626,3.64 0,2.029 0,0 M 19.683,9.888 V 6.503 H 16.2 V -7.925 c 0,-1.951 -0.1,-3.403 -0.303,-4.341 -0.2,-0.939 -0.684,-1.895 -1.451,-2.882 -0.769,-0.976 -1.916,-1.801 -3.451,-2.474 -1.537,-0.664 -3.251,-0.995 -5.146,-0.995 -2.855,0 -5.404,0.853 -7.651,2.578 l 2.483,2.768 c 1.683,-1.308 3.512,-1.961 5.49,-1.961 1.09,0 2.105,0.206 3.043,0.624 0.932,0.418 1.629,0.929 2.09,1.536 0.46,0.596 0.758,1.166 0.889,1.707 0.139,0.54 0.206,1.449 0.206,2.738 v 1.754 c -0.607,-0.758 -1.545,-1.478 -2.826,-2.161 -1.279,-0.673 -2.681,-1.014 -4.209,-1.014 -2.772,0 -5.034,0.957 -6.787,2.882 -1.743,1.924 -2.62,4.284 -2.62,7.08 0,3.072 0.962,5.557 2.896,7.442 1.923,1.886 4.161,2.835 6.692,2.835 2.568,0 4.849,-1.025 6.854,-3.062 v 2.759 z"/></g><g transform="translate(721.3584,45.4824)" id="g122"><path id="path124" style="fill:#414142;fill-opacity:1;fill-rule:nonzero;stroke:none" d="m 0,0 v -3.385 h -7.146 v 2.218 c -2.228,-1.695 -4.366,-2.539 -6.41,-2.539 -1.293,0 -2.364,0.284 -3.212,0.852 -0.843,0.57 -1.413,1.298 -1.686,2.201 -0.284,0.899 -0.429,2.349 -0.429,4.35 v 8.91 h -2.738 v 3.385 h 6.55 V 4.18 c 0,-1.431 0.038,-2.388 0.113,-2.881 0.086,-0.494 0.318,-0.901 0.702,-1.223 0.388,-0.323 0.877,-0.484 1.464,-0.484 1.76,0 3.646,0.844 5.646,2.531 v 10.484 h -3.423 v 3.385 h 7.227 L -3.342,0 Z"/></g><g transform="translate(726.5635,45.4824)" id="g126"><path id="path128" style="fill:#414142;fill-opacity:1;fill-rule:nonzero;stroke:none" d="m 0,0 v 12.607 h -3.905 v 3.385 h 6.948 v -4.361 c 0.427,1.138 1.024,2.076 1.782,2.825 0.763,0.749 1.566,1.242 2.417,1.478 0.844,0.237 2,0.362 3.47,0.362 h 1.006 v -3.85 h -0.764 c -1.939,0 -3.38,-0.188 -4.338,-0.578 C 5.665,11.479 4.957,10.777 4.492,9.754 4.038,8.74 3.807,6.901 3.807,4.266 V 0 H 8.028 V -3.385 H -3.905 V 0 Z"/></g><g transform="translate(742.8027,51.7969)" id="g130"><path id="path132" style="fill:#414142;fill-opacity:1;fill-rule:nonzero;stroke:none" d="m 0,0 c 0,-1.917 0.597,-3.48 1.791,-4.703 1.193,-1.223 2.653,-1.839 4.379,-1.839 1.744,0 3.214,0.626 4.394,1.856 1.18,1.235 1.773,2.798 1.773,4.686 0,1.903 -0.603,3.468 -1.808,4.691 C 9.331,5.924 7.876,6.539 6.17,6.539 4.378,6.539 2.905,5.903 1.744,4.654 0.582,3.393 0,1.847 0,0 m -4.02,-0.012 c 0,2.987 0.985,5.442 2.957,7.357 1.98,1.915 4.389,2.873 7.233,2.873 2.786,0 5.185,-0.939 7.185,-2.825 1.999,-1.897 3.004,-4.361 3.004,-7.405 0,-3.041 -0.995,-5.515 -2.993,-7.403 -1.991,-1.896 -4.394,-2.843 -7.196,-2.843 -2.881,0 -5.303,0.957 -7.26,2.882 -1.954,1.924 -2.93,4.38 -2.93,7.364"/></g><g transform="translate(762.4053,42.0977)" id="g134"><path id="path136" style="fill:#414142;fill-opacity:1;fill-rule:nonzero;stroke:none" d="M 0,0 V 6.646 H 3.402 V 6.001 C 3.524,5.1 4.019,4.351 4.878,3.764 5.734,3.177 6.758,2.883 7.93,2.883 c 1.227,0 2.212,0.208 2.943,0.636 0.733,0.435 1.101,1.022 1.101,1.78 0,0.739 -0.305,1.28 -0.912,1.632 -0.607,0.34 -1.81,0.663 -3.612,0.957 -2.674,0.444 -4.579,1.175 -5.714,2.19 -1.143,1.004 -1.717,2.312 -1.717,3.913 0,1.612 0.625,2.967 1.869,4.058 1.24,1.091 2.871,1.632 4.899,1.632 1.829,0 3.403,-0.38 4.732,-1.13 v 0.826 h 3.383 v -6.428 h -3.383 v 1.187 c -1.035,1.592 -2.528,2.378 -4.491,2.378 -0.999,0 -1.823,-0.218 -2.469,-0.645 -0.648,-0.436 -0.976,-1.014 -0.976,-1.733 0,-0.741 0.299,-1.243 0.891,-1.519 0.598,-0.264 1.877,-0.557 3.839,-0.863 1.877,-0.293 3.299,-0.634 4.266,-1.032 0.957,-0.389 1.755,-1.042 2.389,-1.962 0.635,-0.91 0.948,-1.983 0.948,-3.195 0,-1.801 -0.687,-3.232 -2.066,-4.294 -1.385,-1.063 -3.177,-1.592 -5.375,-1.592 -2.077,0 -3.764,0.474 -5.073,1.412 L 3.402,0 Z"/></g><g transform="translate(791.1758,42.0977)" id="g138"><path id="path140" style="fill:#414142;fill-opacity:1;fill-rule:nonzero;stroke:none" d="M 0,0 V 10.105 H 3.488 V 7.65 c 1.667,-3.033 3.848,-4.549 6.545,-4.549 1.375,0 2.536,0.418 3.485,1.259 0.947,0.844 1.42,1.945 1.42,3.31 0,1.315 -0.388,2.265 -1.16,2.853 -0.773,0.578 -2.238,1.157 -4.385,1.725 -2.497,0.673 -4.346,1.299 -5.545,1.896 -1.204,0.596 -2.162,1.44 -2.871,2.541 -0.722,1.099 -1.072,2.408 -1.072,3.915 0,2.34 0.776,4.199 2.331,5.601 1.555,1.394 3.508,2.086 5.854,2.086 2.232,0 4.299,-0.722 6.205,-2.162 v 1.868 h 3.408 V 19.536 H 14.295 V 21.48 C 12.872,23.633 10.9,24.704 8.389,24.704 6.871,24.704 5.7,24.354 4.886,23.652 4.075,22.95 3.669,22.116 3.669,21.14 c 0,-0.75 0.202,-1.404 0.614,-1.973 0.418,-0.568 0.944,-0.985 1.584,-1.25 0.644,-0.267 1.906,-0.636 3.782,-1.118 2.459,-0.636 4.242,-1.235 5.347,-1.792 1.109,-0.55 2.066,-1.48 2.863,-2.769 0.805,-1.299 1.203,-2.786 1.203,-4.464 0,-2.379 -0.833,-4.342 -2.511,-5.896 -1.678,-1.545 -3.75,-2.323 -6.22,-2.323 -2.534,0 -4.813,0.92 -6.843,2.749 L 3.488,0 Z"/></g><path id="path142" style="fill:#414142;fill-opacity:1;fill-rule:nonzero;stroke:none" d="m 814.02,47.018 h 4.931 v -4.92 h -4.931 z"/><g transform="translate(840.8564,55.1504)" id="g144"><path id="path146" style="fill:#414142;fill-opacity:1;fill-rule:nonzero;stroke:none" d="M 0,0 -3.706,11.651 H -4.085 L -7.944,0 Z M 1.052,-3.26 H -8.986 l -2.128,-6.313 h 3.385 v -3.48 h -10.974 v 3.48 h 3.371 l 7.605,21.224 h -3.368 v 3.147 H 3.138 v -3.147 h -3.479 l 7.79,-21.224 h 3.121 v -3.48 H -0.341 v 3.48 h 3.459 z"/></g><path id="path148" style="fill:#414142;fill-opacity:1;fill-rule:nonzero;stroke:none" d="m 854.63,47.018 h 4.921 v -4.92 h -4.921 z"/></g></g></g></svg>
